<?xml version="1.0" encoding="UTF-8" standalone="no"?>
<!-- Generator: Adobe Illustrator 16.0.0, SVG Export Plug-In . SVG Version: 6.00 Build 0)  -->

<svg
   version="1.1"
   id="Warstwa_1"
   x="0px"
   y="0px"
   width="185.554"
   height="37.75"
   viewBox="0 0 185.554 37.75"
   enable-background="new 0 0 452.832 39.833"
   xml:space="preserve"
   sodipodi:docname="doyensec_partial.svg"
   inkscape:version="1.1 (c4e8f9ed74, 2021-05-24)"
   xmlns:inkscape="http://www.inkscape.org/namespaces/inkscape"
   xmlns:sodipodi="http://sodipodi.sourceforge.net/DTD/sodipodi-0.dtd"
   xmlns="http://www.w3.org/2000/svg"
   xmlns:svg="http://www.w3.org/2000/svg"><defs
   id="defs117" /><sodipodi:namedview
   id="namedview115"
   pagecolor="#ffffff"
   bordercolor="#666666"
   borderopacity="1.0"
   inkscape:pageshadow="2"
   inkscape:pageopacity="0.0"
   inkscape:pagecheckerboard="0"
   showgrid="false"
   inkscape:zoom="2.8906968"
   inkscape:cx="225.72413"
   inkscape:cy="18.853586"
   inkscape:window-width="1920"
   inkscape:window-height="1047"
   inkscape:window-x="1920"
   inkscape:window-y="0"
   inkscape:window-maximized="1"
   inkscape:current-layer="Warstwa_1" />
<g
   id="g30"
   transform="translate(-0.648,-0.958)">
	<g
   id="g18">
		<path
   fill="#9a9999"
   d="m 67.423,19.091 c 0,6.074 -3.754,9.638 -10.138,9.638 H 51.386 V 9.485 h 5.899 c 6.333,0 10.138,3.53 10.138,9.606 m -12.179,-5.94 v 11.936 h 1.918 c 4.186,0 6.352,-2.199 6.352,-5.974 0,-3.79 -2.191,-5.962 -6.352,-5.962 z"
   id="path2" />
		<path
   fill="#9a9999"
   d="m 88.365,19.142 c 0,5.735 -4.085,9.923 -9.533,9.923 -5.474,0 -9.507,-4.188 -9.507,-9.923 0,-5.782 4.033,-9.995 9.507,-9.995 5.449,-10e-4 9.533,4.212 9.533,9.995 m -15.159,0 c 0,3.665 2.319,6.287 5.626,6.287 3.303,0 5.622,-2.622 5.622,-6.287 0,-3.716 -2.319,-6.359 -5.622,-6.359 -3.306,-10e-4 -5.626,2.643 -5.626,6.359"
   id="path4" />
		<polygon
   fill="#9a9999"
   points="94.877,28.729 94.877,20.924 88.096,9.486 92.556,9.486 96.768,16.918 100.982,9.486 105.444,9.486 98.711,20.844 98.711,28.729 "
   id="polygon6" />
		<polygon
   fill="#9a9999"
   points="126.188,17.991 126.188,28.729 122.33,28.729 122.33,9.146 122.43,9.146 133.375,20.214 133.375,9.486 137.235,9.486 137.235,29.064 137.133,29.064 "
   id="polygon8" />
		<polygon
   fill="#9a9999"
   points="107.394,28.729 107.394,9.485 119.374,9.485 119.374,13.123 110.897,13.123 110.897,17.286 117.272,17.286 117.272,20.661 110.897,20.661 110.897,25.086 119.573,25.086 119.573,28.729 110.897,28.729 "
   id="polygon10" />
		<path
   fill="#9a9999"
   d="m 153.053,11.159 -1.99,3.302 c -1.136,-0.947 -2.551,-1.679 -4.516,-1.679 -1.642,0 -2.648,0.681 -2.648,2.094 0,1.1 0.707,1.651 3.479,2.201 4.792,1.049 6.306,2.853 6.306,5.81 0,3.691 -2.646,6.178 -7.012,6.178 -2.825,0 -5.348,-0.915 -7.187,-2.562 l 2.093,-3.326 c 1.235,1.361 3.327,2.254 5.219,2.254 1.945,0 3.053,-0.762 3.053,-2.174 0,-1.129 -0.832,-1.754 -3.579,-2.305 -4.793,-1.076 -6.229,-3.062 -6.229,-5.889 0,-3.46 2.544,-5.916 6.528,-5.916 2.649,-10e-4 4.943,0.781 6.483,2.012"
   id="path12" />
		<path
   fill="#9a9999"
   d="m 186.177,12.023 -2.421,2.904 c -0.982,-1.204 -2.396,-2.146 -4.288,-2.146 -3.404,0 -5.626,2.644 -5.626,6.309 0,3.667 2.222,6.338 5.626,6.338 1.917,0 3.354,-0.973 4.338,-2.202 l 2.396,2.905 c -1.842,2.098 -4.035,2.933 -6.733,2.933 -5.573,0 -9.504,-4.267 -9.504,-9.974 0,-5.68 3.931,-9.944 9.504,-9.944 2.927,0 4.918,0.962 6.708,2.877"
   id="path14" />
		<polygon
   fill="#9a9999"
   points="159.613,20.663 165.991,20.663 165.991,17.286 159.613,17.286 159.613,13.123 168.093,13.123 168.093,9.486 156.112,9.486 156.112,28.729 159.613,28.729 168.29,28.729 168.29,25.086 159.613,25.086 "
   id="polygon16" />
	</g>
	<g
   id="g28">
		<polygon
   fill="#343434"
   points="0.648,2.389 13.919,19.832 7.073,27.997 13.803,27.997 18.583,19.832 11.088,7.028 11.099,7.028 26.158,7.028 36.334,19.832 26.158,32.64 21.996,32.64 29.49,19.832 24.713,11.662 19.283,11.662 25.135,19.832 12.551,37.275 30.175,37.275 40.382,19.832 30.175,2.389 8.387,2.389 "
   id="polygon20" />
		<polygon
   fill="#9a6634"
   points="3.426,0.958 6.215,5.979 13.919,19.832 9.007,28.667 14.587,28.667 19.501,19.832 11.796,5.979 11.809,5.979 28.628,5.979 36.334,19.832 28.628,33.688 23.011,33.688 30.717,19.832 25.803,10.995 20.221,10.995 25.135,19.832 17.429,33.688 14.64,38.708 31.417,38.708 41.915,19.832 31.417,0.958 9.019,0.958 "
   id="polygon22" />
		<polygon
   fill="#f4983a"
   points="3.426,0.958 6.215,5.979 13.917,19.832 19.5,19.832 11.796,5.979 11.809,5.979 28.628,5.979 36.332,19.832 41.913,19.832 31.417,0.958 9.019,0.958 "
   id="polygon24" />
		<polygon
   fill="#f49739"
   points="25.132,19.832 30.715,19.832 25.803,10.995 20.221,10.995 "
   id="polygon26" />
	</g>
</g>



</svg>
