<?xml version="1.0" encoding="UTF-8" standalone="no"?>
<svg
   xmlns:dc="http://purl.org/dc/elements/1.1/"
   xmlns:cc="http://creativecommons.org/ns#"
   xmlns:rdf="http://www.w3.org/1999/02/22-rdf-syntax-ns#"
   xmlns:svg="http://www.w3.org/2000/svg"
   xmlns="http://www.w3.org/2000/svg"
   xmlns:sodipodi="http://sodipodi.sourceforge.net/DTD/sodipodi-0.dtd"
   xmlns:inkscape="http://www.inkscape.org/namespaces/inkscape"
   xml:space="preserve"
   viewBox="0 0 500 249"
   y="0px"
   x="0px"
   id="Layer_1"
   version="1.1"
   sodipodi:docname="revng-logo.svg"
   width="500"
   height="249"
   inkscape:version="0.92.2 2405546, 2018-03-11"><sodipodi:namedview
   pagecolor="#000000"
   bordercolor="#666666"
   borderopacity="1"
   objecttolerance="10"
   gridtolerance="10"
   guidetolerance="10"
   inkscape:pageopacity="0"
   inkscape:pageshadow="2"
   inkscape:window-width="1920"
   inkscape:window-height="1051"
   id="namedview17"
   showgrid="false"
   inkscape:measure-start="427.935,180.906"
   inkscape:measure-end="427.935,253.715"
   inkscape:zoom="2.692"
   inkscape:cx="250"
   inkscape:cy="100"
   inkscape:window-x="0"
   inkscape:window-y="0"
   inkscape:window-maximized="1"
   inkscape:current-layer="Layer_1" /><metadata
   id="metadata30"><rdf:RDF><cc:Work
       rdf:about=""><dc:format>image/svg+xml</dc:format><dc:type
         rdf:resource="http://purl.org/dc/dcmitype/StillImage" /><dc:title></dc:title></cc:Work></rdf:RDF></metadata><defs
   id="defs28" />
<style
   id="style2"
   type="text/css">
	.st0{fill:url(#SVGID_1_);}
	.st1{fill:#FFFFFF;}
</style>
<linearGradient
   y2="22.1308"
   x2="233.4113"
   y1="132.7634"
   x1="203.7673"
   gradientUnits="userSpaceOnUse"
   id="SVGID_1_"
   gradientTransform="translate(0,49)">
	<stop
   id="stop4"
   style="stop-color:#D56B36"
   offset="0" />
	<stop
   id="stop6"
   style="stop-color:#D76331"
   offset="4.462330e-02" />
	<stop
   id="stop8"
   style="stop-color:#DF4820"
   offset="0.2232" />
	<stop
   id="stop10"
   style="stop-color:#E33816"
   offset="0.3818" />
	<stop
   id="stop12"
   style="stop-color:#E53212"
   offset="0.5031" />
	<stop
   id="stop14"
   style="stop-color:#E02723"
   offset="0.6426" />
	<stop
   id="stop16"
   style="stop-color:#D20A4E"
   offset="0.9161" />
	<stop
   id="stop18"
   style="stop-color:#CD005C"
   offset="1" />
</linearGradient>
<path
   id="path21"
   d="m 208.1,182.7 c -26.6,-4.9 -46.8,-28.2 -46.8,-56.3 0,-11.2 3.3,-21.6 8.8,-30.5 z m 20.9,0 c 26.6,-4.9 46.8,-28.2 46.8,-56.3 0,-11.2 -3.3,-21.6 -8.8,-30.5 z m -10.2,-21.5 35,-79.9 c -9.7,-7.6 -21.9,-12.1 -35.2,-12.1 -12.9,0 -24.7,4.3 -34.3,11.5 z"
   class="st0"
   inkscape:connector-curvature="0"
   style="fill:url(#SVGID_1_)" />
<path
   id="path23"
   d="m 41.6,73.5 c 6.8,-3.4 15.1,-5 24.9,-5 V 88 C 65.4,87.9 63.8,87.8 61.9,87.8 51,87.8 42.5,91 36.2,97.5 30.1,104 27,113.2 27,125.2 v 55.3 H 6.9 v -111 h 19.3 v 18.6 c 3.4,-6.4 8.6,-11.3 15.4,-14.6 z m 431.6,-4 v 18 c -4.8,-6.3 -11,-11 -18.5,-14.2 -7.5,-3.2 -15.7,-4.8 -24.4,-4.8 -11.1,0 -21.2,2.3 -30.1,7 -9,4.7 -16,11.3 -21.2,19.8 -0.2,0.3 -0.3,0.5 -0.5,0.8 -2.1,-6.1 -5.2,-11.3 -9.4,-15.4 -8.3,-8.2 -19.5,-12.3 -33.6,-12.3 -8.8,0 -16.7,1.5 -23.6,4.6 -6.9,3.1 -12.4,7.5 -16.4,13.2 V 69.5 h -19.3 v 16.8 c 7.5,11.1 11.9,24.4 11.9,38.7 0,14.3 -4.4,27.7 -11.9,38.7 v 16.8 h 20.1 v -57.2 c 0,-11.9 3.1,-21 9.4,-27.3 6.3,-6.4 14.9,-9.5 25.8,-9.5 9.6,0 17,2.7 22.2,8.2 5.2,5.4 7.7,13.5 7.7,24.3 v 61.6 h 20.1 v -23 c 4.8,6.7 11,12.2 18.6,16.2 9,4.7 19,7.1 30.1,7.1 8.5,0 16.3,-1.5 23.6,-4.5 7.2,-3 13.3,-7.5 18.3,-13.5 v 9.2 c 0,13.2 -3.3,22.9 -9.8,29.4 -6.5,6.4 -16.5,9.6 -30.1,9.6 -8.5,0 -16.7,-1.4 -24.7,-4.1 -8,-2.7 -14.7,-6.4 -20.1,-11.1 l -10.1,16.2 c 6.1,5.6 14.2,9.8 24.1,12.8 9.9,3 20.4,4.5 31.3,4.5 20,0 35.1,-4.9 45.2,-14.6 10.1,-9.7 15.1,-24.7 15.1,-45 V 69.5 Z m -5.8,74.7 c -3.4,5.8 -8.2,10.3 -14.2,13.5 -6.1,3.2 -12.9,4.8 -20.5,4.8 -7.7,0 -14.6,-1.6 -20.7,-4.8 -6.1,-3.2 -10.8,-7.7 -14.2,-13.5 -3.4,-5.8 -5.2,-12.3 -5.2,-19.6 0,-11.2 3.7,-20.3 11.2,-27.3 7.5,-6.9 17.1,-10.4 28.9,-10.4 11.7,0 21.3,3.5 28.7,10.4 7.4,6.9 11.2,16 11.2,27.3 -0.1,7.3 -1.8,13.8 -5.2,19.6 z m -311.1,9.9 c -7.6,6.7 -17.2,10.1 -28.7,10.1 -10.9,0 -20,-3 -27.3,-8.9 C 93,149.4 88.7,141.5 87.4,131.7 h 62.8 c -0.2,-2.2 -0.3,-4.4 -0.3,-6.7 0,-2.6 0.2,-5.2 0.5,-7.8 h -63 c 1.1,-9.5 4.9,-17.2 11.4,-23 6.5,-5.9 14.6,-8.8 24.2,-8.8 9.6,0 17.7,3 24.2,8.9 2.6,2.4 4.8,5.1 6.5,8 2.2,-6.3 5.3,-12.2 9.1,-17.6 -3.3,-3.5 -7.1,-6.6 -11.5,-9.1 -8.3,-4.8 -17.8,-7.2 -28.4,-7.2 -10.6,0 -20.1,2.4 -28.6,7.2 -8.3,4.9 -15,11.6 -19.8,20.3 -4.8,8.7 -7.2,18.4 -7.2,29.1 0,10.9 2.5,20.7 7.4,29.3 5,8.7 12,15.4 21.1,20.2 9.1,4.8 19.5,7.2 31.2,7.2 9.2,0 17.6,-1.5 25,-4.6 5.1,-2.1 9.6,-4.9 13.6,-8.3 -3.7,-4.4 -6.8,-9.4 -9.3,-14.7 z"
   class="st1"
   inkscape:connector-curvature="0"
   style="fill:#ffffff" />
</svg>