<?xml version="1.0" encoding="UTF-8" standalone="no"?>
<svg
   id="Ebene_1"
   data-name="Ebene 1"
   viewBox="0 0 536.89 203.9"
   version="1.1"
   sodipodi:docname="Wuerth_Phoenix_svg.svg"
   inkscape:version="1.4.2 (ebf0e940d0, 2025-05-08)"
   xmlns:inkscape="http://www.inkscape.org/namespaces/inkscape"
   xmlns:sodipodi="http://sodipodi.sourceforge.net/DTD/sodipodi-0.dtd"
   xmlns="http://www.w3.org/2000/svg"
   xmlns:svg="http://www.w3.org/2000/svg">
  <sodipodi:namedview
     id="namedview9"
     pagecolor="#ffffff"
     bordercolor="#000000"
     borderopacity="0.25"
     inkscape:showpageshadow="2"
     inkscape:pageopacity="0.0"
     inkscape:pagecheckerboard="0"
     inkscape:deskcolor="#d1d1d1"
     inkscape:zoom="1.1938987"
     inkscape:cx="174.21913"
     inkscape:cy="-26.802944"
     inkscape:window-width="1920"
     inkscape:window-height="1131"
     inkscape:window-x="0"
     inkscape:window-y="0"
     inkscape:window-maximized="1"
     inkscape:current-layer="Ebene_1" />
  <defs
     id="defs1">
    <style
       id="style1">.cls-1{fill:#939598;}.cls-2,.cls-3{fill:#ed1c24;}.cls-3,.cls-4{fill-rule:evenodd;}.cls-4,.cls-5{fill:#231f20;}</style>
  </defs>
  <title
     id="title1">Wuerth_Phoenix_svg</title>
  <path
     class="cls-1"
     d="M248.81,272.61q3.27-5.5,7-10.88c40.62-58.43,107.56-82.14,149.52-53,12.3,8.55,21.09,20.7,26.34,35.07,2.71-13.84,9.54-25.39,20.42-32.48,27.83-18.13,71.66-.17,97.9,40.11q2.41,3.71,4.52,7.49c-31.69-34.39-74.44-47.37-103.14-28.68a53.23,53.23,0,0,0-17.76,19.51,66.28,66.28,0,0,0-3.05,6.48l-.21.54c-.54,1.38-1,2.78-1.5,4.21-8.75,27.26-2.53,64.28,19,97.37q1.35,2.07,2.74,4.06l-30.88.1q-.83-5.21-1.37-10.54c-5.73-57.95,20.51-105.76-19.53-101.8-32.23,3.19-58.91,40.63-62.42,87.48q-.8-4.55-1.26-9.25c-3.25-32.88,6.57-62.73,23.77-79.25a105.6,105.6,0,0,0-77.55,77.37c-.28-2.88-.43-5.79-.43-8.74A87.09,87.09,0,0,1,399.4,236.6a47.43,47.43,0,0,1,11,3.8q-2.12-1.69-4.35-3.25c-43.27-30.08-108.48-13.74-157.27,35.46Z"
     transform="translate(-152 -196.28)"
     id="path1"
     style="fill:#d8d9d9;fill-opacity:1" />
  <polygon
     class="cls-2"
     points="10.44 203.54 21.76 203.54 29.26 182.31 29.35 182.31 36.85 203.54 48.18 203.54 58.61 171.39 48.98 171.39 42.14 195.01 42.05 195.01 33.88 171.39 24.73 171.39 16.56 195.01 16.47 195.01 9.64 171.39 0 171.39 10.44 203.54 10.44 203.54"
     id="polygon1" />
  <path
     class="cls-3"
     d="M224.21,364.56h8.52V357.9h-8.52v6.66Zm12.07,0h8.53V357.9h-8.53v6.66Zm-22,23.8c0,8,4.13,11.81,13.19,11.81h14.12c9.06,0,13.19-3.81,13.19-11.81V367.67H244.9v18.56c0,4.09-1.47,5.69-5.51,5.69h-9.77c-4,0-5.5-1.6-5.5-5.69V367.67h-9.86v20.69Z"
     transform="translate(-152 -196.28)"
     id="path2" />
  <path
     class="cls-3"
     d="M271.26,375.66h15.41c3.11,0,4.53.54,4.53,3.38v1.06c0,2.31-1,3.38-3.64,3.38h-16.3v-7.82Zm-9.86,24.16h9.86v-8.35h15.5c3.06,0,4,1.11,4,4.49v3.86h9.85v-5.46c0-5.29-2.44-6.57-5.37-7.11v-.09c4.53-1.06,5.51-3.59,5.51-7.9v-2c0-5.78-2.05-9.55-9.64-9.55H261.4v32.15Z"
     transform="translate(-152 -196.28)"
     id="path3" />
  <polygon
     class="cls-2"
     points="153.09 179.38 166.94 179.38 166.94 203.54 176.8 203.54 176.8 179.38 190.66 179.38 190.66 171.39 153.09 171.39 153.09 179.38 153.09 179.38"
     id="polygon3" />
  <polygon
     class="cls-2"
     points="194.95 203.54 204.81 203.54 204.81 191.37 225.59 191.37 225.59 203.54 235.45 203.54 235.45 171.39 225.59 171.39 225.59 182.85 204.81 182.85 204.81 171.39 194.95 171.39 194.95 203.54 194.95 203.54"
     id="polygon4" />
  <path
     class="cls-4"
     d="M394.23,399.82h9.86v-8.08h19.58c7,0,9.06-5.51,9.06-10.3v-2.76c0-6.3-2.27-11-11.63-11H394.23v32.15Zm9.86-24.15h14.47c3,0,4.05,1.24,4.05,3.41v1.25c0,1.91-.89,3.42-3.2,3.42H404.09v-8.08Z"
     transform="translate(-152 -196.28)"
     id="path4"
     style="fill:#efeeee;fill-opacity:1" />
  <polygon
     class="cls-5"
     points="286.05 203.54 295.9 203.54 295.9 191.37 316.69 191.37 316.69 203.54 326.54 203.54 326.54 171.39 316.69 171.39 316.69 182.85 295.9 182.85 295.9 171.39 286.05 171.39 286.05 203.54 286.05 203.54"
     id="polygon5"
     style="fill:#efeeee;fill-opacity:1" />
  <path
     class="cls-4"
     d="M484.48,388.54c0,9.42,5.28,11.64,14.16,11.64h15.81c8.88,0,14.17-2.22,14.17-11.64V379c0-9.41-5.29-11.63-14.17-11.63H498.64c-8.88,0-14.16,2.22-14.16,11.63v9.59ZM494.6,382c0-4,1-6.43,6.17-6.43h11.55c5.19,0,6.17,2.44,6.17,6.43v3.47c0,4.66-1,6.44-5.64,6.44H500.24c-4.66,0-5.64-1.78-5.64-6.44V382Z"
     transform="translate(-152 -196.28)"
     id="path5"
     style="fill:#efeeee;fill-opacity:1" />
  <polygon
     class="cls-5"
     points="382.56 203.54 418.3 203.54 418.3 195.81 392.41 195.81 392.41 190.66 416.39 190.66 416.39 184 392.41 184 392.41 178.85 417.72 178.85 417.72 171.39 382.56 171.39 382.56 203.54 382.56 203.54"
     id="polygon6"
     style="fill:#efeeee;fill-opacity:1" />
  <polygon
     class="cls-5"
     points="424.25 203.54 434.1 203.54 434.1 180.19 434.19 180.19 452.71 203.54 467.98 203.54 467.98 171.39 458.13 171.39 458.13 194.75 458.04 194.75 439.52 171.39 424.25 171.39 424.25 203.54 424.25 203.54"
     id="polygon7"
     style="fill:#efeeee;fill-opacity:1" />
  <polygon
     class="cls-5"
     points="475.17 203.54 485.03 203.54 485.03 171.39 475.17 171.39 475.17 203.54 475.17 203.54"
     id="polygon8"
     style="fill:#efeeee;fill-opacity:1" />
  <polygon
     class="cls-5"
     points="489.2 203.54 502.43 203.54 513.04 191.86 523.66 203.54 536.89 203.54 521.13 187.42 535.78 171.39 523.03 171.39 513.04 182.63 503.05 171.39 490.31 171.39 504.96 187.42 489.2 203.54 489.2 203.54"
     id="polygon9"
     style="fill:#efeeee;fill-opacity:1" />
  <path
     class="cls-2"
     d="M647.4,340.83H617.8V328.14h12.32v5h5v-5H647.4v12.69m-12.31,14.75v5a15,15,0,0,0,12.31-14.44v-.26H617.8v.26a15,15,0,0,0,12.32,14.44v-5Z"
     transform="translate(-152 -196.28)"
     id="path9" />
</svg>
